<?xml version="1.0" encoding="UTF-8" standalone="no"?>
<!-- Created with Inkscape (http://www.inkscape.org/) -->

<svg
   width="520"
   height="240"
   viewBox="0 0 137.58333 63.5"
   version="1.1"
   id="svg1"
   xml:space="preserve"
   inkscape:version="1.4 (e7c3feb100, 2024-10-09)"
   sodipodi:docname="logo.svg"
   xmlns:inkscape="http://www.inkscape.org/namespaces/inkscape"
   xmlns:sodipodi="http://sodipodi.sourceforge.net/DTD/sodipodi-0.dtd"
   xmlns="http://www.w3.org/2000/svg"
   xmlns:svg="http://www.w3.org/2000/svg"><sodipodi:namedview
     id="namedview1"
     pagecolor="#ffffff"
     bordercolor="#000000"
     borderopacity="0.25"
     inkscape:showpageshadow="2"
     inkscape:pageopacity="0.0"
     inkscape:pagecheckerboard="0"
     inkscape:deskcolor="#d1d1d1"
     inkscape:document-units="px"
     inkscape:zoom="0.73075397"
     inkscape:cx="406.42954"
     inkscape:cy="400.27152"
     inkscape:window-width="1290"
     inkscape:window-height="1080"
     inkscape:window-x="304"
     inkscape:window-y="-11"
     inkscape:window-maximized="1"
     inkscape:current-layer="layer1" /><defs
     id="defs1" /><g
     inkscape:label="Layer 1"
     inkscape:groupmode="layer"
     id="layer1"><g
       id="g4"
       transform="translate(-35.558848,-113.34856)"
       style="fill:#f9f9f9"><path
         style="fill:#f9f9f9;stroke-width:0.529167"
         d="m 49.784481,115.59052 v 6.78879 H 168.72414 v -6.69828 z"
         id="path1" /><path
         id="path2"
         style="opacity:1;fill:#f9f9f9;stroke-width:0.529167"
         d="m 50.436198,129.54661 -10.45931,43.11779 34.5705,-0.0904 c 4.296545,-1.0753 6.212175,-3.14282 7.109126,-5.86011 l 2.446363,-11.30887 c 0.473737,-1.74992 -0.07825,-3.13779 -1.65623,-4.16357 1.642176,-0.90037 3.057947,-2.50955 3.975985,-4.37544 l 2.040702,-11.7321 c -0.101239,-2.51629 -0.941706,-4.35336 -2.973979,-5.42137 z m 13.537158,5.53662 10.113078,0.19223 -3.2644,13.409 -9.952881,-0.0641 z m -4.413167,18.66036 9.821106,0.0455 -2.941423,13.53199 -9.821106,-0.0904 z" /><path
         style="opacity:1;fill:#f9f9f9;stroke-width:0.529167"
         d="m 95.816017,129.67485 -10.240857,42.94759 15.68131,0.064 2.30419,-11.20094 2.43221,-2.04817 4.54438,13.1851 15.16927,0.064 -8.3847,-24.13002 17.85749,-17.8575 5.05642,0.12801 -8.64072,43.77967 15.29728,-0.064 8.96075,-43.97168 11.00892,0.25602 1.28011,-6.27252 -34.24287,0.12801 -28.16235,28.93042 5.31244,-23.938 z"
         id="path4" /></g></g></svg>
